<svg xmlns="http://www.w3.org/2000/svg" width="805" height="600"><rect width="805" height="600" x="0" y="0" fill="#FFFFFF" id="backgorund"/><g id="viz"><clipPath id="serieClipPath"><rect x="-50" y="-10" width="805" height="600"/></clipPath><g transform="translate(0,0)"><g transform="translate(50,10)" clip-path="url(#serieClipPath)"><g id="axis"><g transform="translate(0,570)" fill="none" font-size="10" font-family="sans-serif" text-anchor="middle"><path class="domain" stroke="currentColor" d="M0,6V0H740V6"/><g class="tick" opacity="1" transform="translate(0,0)"><line stroke="currentColor" y2="6"/><text fill="currentColor" y="9" dy="0.71em">Tue 11</text></g><g class="tick" opacity="1" transform="translate(51.03448275862069,0)"><line stroke="currentColor" y2="6"/><text fill="currentColor" y="9" dy="0.71em">Thu 13</text></g><g class="tick" opacity="1" transform="translate(102.06896551724138,0)"><line stroke="currentColor" y2="6"/><text fill="currentColor" y="9" dy="0.71em">Sat 15</text></g><g class="tick" opacity="1" transform="translate(153.10344827586206,0)"><line stroke="currentColor" y2="6"/><text fill="currentColor" y="9" dy="0.71em">Mon 17</text></g><g class="tick" opacity="1" transform="translate(204.13793103448276,0)"><line stroke="currentColor" y2="6"/><text fill="currentColor" y="9" dy="0.71em">Wed 19</text></g><g class="tick" opacity="1" transform="translate(255.17241379310346,0)"><line stroke="currentColor" y2="6"/><text fill="currentColor" y="9" dy="0.71em">Fri 21</text></g><g class="tick" opacity="1" transform="translate(306.2068965517241,0)"><line stroke="currentColor" y2="6"/><text fill="currentColor" y="9" dy="0.71em">Oct 23</text></g><g class="tick" opacity="1" transform="translate(357.2413793103448,0)"><line stroke="currentColor" y2="6"/><text fill="currentColor" y="9" dy="0.71em">Tue 25</text></g><g class="tick" opacity="1" transform="translate(408.2758620689655,0)"><line stroke="currentColor" y2="6"/><text fill="currentColor" y="9" dy="0.71em">Thu 27</text></g><g class="tick" opacity="1" transform="translate(459.3103448275862,0)"><line stroke="currentColor" y2="6"/><text fill="currentColor" y="9" dy="0.71em">Sat 29</text></g><g class="tick" opacity="1" transform="translate(510.3448275862069,0)"><line stroke="currentColor" y2="6"/><text fill="currentColor" y="9" dy="0.71em">Mon 31</text></g><g class="tick" opacity="1" transform="translate(535.8620689655172,0)"><line stroke="currentColor" y2="6"/><text fill="currentColor" y="9" dy="0.71em">November</text></g><g class="tick" opacity="1" transform="translate(586.8965517241379,0)"><line stroke="currentColor" y2="6"/><text fill="currentColor" y="9" dy="0.71em">Thu 03</text></g><g class="tick" opacity="1" transform="translate(637.9310344827586,0)"><line stroke="currentColor" y2="6"/><text fill="currentColor" y="9" dy="0.71em">Sat 05</text></g><g class="tick" opacity="1" transform="translate(688.9655172413793,0)"><line stroke="currentColor" y2="6"/><text fill="currentColor" y="9" dy="0.71em">Mon 07</text></g><g class="tick" opacity="1" transform="translate(740,0)"><line stroke="currentColor" y2="6"/><text fill="currentColor" y="9" dy="0.71em">Wed 09</text></g><text x="740" dy="-5" text-anchor="end" style="font-family: Arial, sans-serif; font-size: 12px; fill: rgb(123, 123, 123); font-weight: bold;">日期</text></g><g transform="translate(0,0)" fill="none" font-size="10" font-family="sans-serif" text-anchor="end"><path class="domain" stroke="currentColor" d="M0,570V0"/><g class="tick" opacity="1" transform="translate(0,570)"><line stroke="currentColor" x2="-6"/><text fill="currentColor" x="-9" dy="0.32em">370</text></g><g class="tick" opacity="1" transform="translate(0,513)"><line stroke="currentColor" x2="-6"/><text fill="currentColor" x="-9" dy="0.32em">375</text></g><g class="tick" opacity="1" transform="translate(0,456)"><line stroke="currentColor" x2="-6"/><text fill="currentColor" x="-9" dy="0.32em">380</text></g><g class="tick" opacity="1" transform="translate(0,399)"><line stroke="currentColor" x2="-6"/><text fill="currentColor" x="-9" dy="0.32em">385</text></g><g class="tick" opacity="1" transform="translate(0,342)"><line stroke="currentColor" x2="-6"/><text fill="currentColor" x="-9" dy="0.32em">390</text></g><g class="tick" opacity="1" transform="translate(0,285)"><line stroke="currentColor" x2="-6"/><text fill="currentColor" x="-9" dy="0.32em">395</text></g><g class="tick" opacity="1" transform="translate(0,228)"><line stroke="currentColor" x2="-6"/><text fill="currentColor" x="-9" dy="0.32em">400</text></g><g class="tick" opacity="1" transform="translate(0,171.00000000000003)"><line stroke="currentColor" x2="-6"/><text fill="currentColor" x="-9" dy="0.32em">405</text></g><g class="tick" opacity="1" transform="translate(0,113.99999999999997)"><line stroke="currentColor" x2="-6"/><text fill="currentColor" x="-9" dy="0.32em">410</text></g><g class="tick" opacity="1" transform="translate(0,56.999999999999986)"><line stroke="currentColor" x2="-6"/><text fill="currentColor" x="-9" dy="0.32em">415</text></g><g class="tick" opacity="1" transform="translate(0,0)"><line stroke="currentColor" x2="-6"/><text fill="currentColor" x="-9" dy="0.32em">420</text></g><text x="4" text-anchor="start" dominant-baseline="hanging" style="font-family: Arial, sans-serif; font-size: 12px; fill: rgb(123, 123, 123); font-weight: bold;">收盤</text></g></g><g id="viz"><g><path d="M0,210.9C12.758620689655173,210.9,12.758620689655173,256.5,25.517241379310345,256.5C38.275862068965516,256.5,38.275862068965516,285,51.03448275862069,285C63.79310344827586,285,63.79310344827586,91.20000000000002,76.55172413793103,91.20000000000002C114.82758620689654,91.20000000000002,114.82758620689654,262.2,153.10344827586206,262.2C165.86206896551724,262.2,165.86206896551724,148.20000000000002,178.6206896551724,148.20000000000002C191.3793103448276,148.20000000000002,191.3793103448276,279.3,204.13793103448276,279.3C216.89655172413794,279.3,216.89655172413794,256.5,229.6551724137931,256.5C242.41379310344828,256.5,242.41379310344828,347.7,255.17241379310346,347.7C293.44827586206895,347.7,293.44827586206895,376.19999999999993,331.7241379310345,376.19999999999993C344.48275862068965,376.19999999999993,344.48275862068965,558.6,357.2413793103448,558.6C370,558.6,370,501.6,382.7586206896552,501.6C395.51724137931035,501.6,395.51724137931035,393.29999999999995,408.2758620689655,393.29999999999995C421.0344827586207,393.29999999999995,421.0344827586207,461.70000000000005,433.7931034482758,461.70000000000005C472.0689655172414,461.70000000000005,472.0689655172414,342,510.3448275862069,342C523.1034482758621,342,523.1034482758621,324.90000000000003,535.8620689655172,324.90000000000003C548.6206896551723,324.90000000000003,548.6206896551723,285,561.3793103448276,285C574.1379310344828,285,574.1379310344828,410.4,586.8965517241379,410.4C599.655172413793,410.4,599.655172413793,433.2,612.4137931034483,433.2C650.6896551724137,433.2,650.6896551724137,342,688.9655172413793,342C701.7241379310344,342,701.7241379310344,239.40000000000003,714.4827586206897,239.40000000000003C727.2413793103449,239.40000000000003,727.2413793103449,34.20000000000003,740,34.20000000000003" stroke="#1f77b4" fill="none"/><text font-family="sans-serif" font-size="10" class="labels" x="740" y="34.20000000000003" dx="0" dy="-4" text-anchor="middle"/></g></g></g><text y="4" x="4" style="font-family: Arial, sans-serif; font-size: 12px; fill: black; font-weight: bold; dominant-baseline: hanging;"/></g><g id="grid"><rect x="0" y="0" width="805" height="600" fill="none" stroke="#ccc"/></g></g></svg>